<?xml version="1.0" encoding="utf-8"?>
<!-- Generator: Adobe Illustrator 21.1.0, SVG Export Plug-In . SVG Version: 6.00 Build 0)  -->
<svg version="1.1" id="Prueba2" xmlns="http://www.w3.org/2000/svg" xmlns:xlink="http://www.w3.org/1999/xlink" x="0px" y="0px"
	 viewBox="0 0 400 400" style="enable-background:new 0 0 400 400;" xml:space="preserve">
<style type="text/css">
	.st0{fill:#174D4F;}
	.st1{fill:#FF9566;}
	.st2{fill:#1F727A;}
	.st3{fill:#FFE083;}
</style>
<polygon class="st0" points="100.3,32.9 50.3,24.6 0.3,32.9 0.3,16.3 50.3,8 100.3,16.3 "/>
<polygon class="st1" points="200.3,32.9 150.3,24.6 100.3,32.9 100.3,16.3 150.3,8 200.3,16.3 "/>
<polygon class="st2" points="300.3,32.9 250.3,24.6 200.3,32.9 200.3,16.3 250.3,8 300.3,16.3 "/>
<polygon class="st3" points="400.3,32.9 350.3,24.6 300.3,32.9 300.3,16.3 350.3,8 400.3,16.3 "/>
<polygon class="st1" points="100.3,183.1 50.3,174.9 0.3,183.1 0.3,166.6 50.3,158.3 100.3,166.6 "/>
<polygon class="st2" points="200.3,183.1 150.3,174.9 100.3,183.1 100.3,166.6 150.3,158.3 200.3,166.6 "/>
<polygon class="st3" points="300.3,183.1 250.3,174.9 200.3,183.1 200.3,166.6 250.3,158.3 300.3,166.6 "/>
<polygon class="st0" points="400.3,183.1 350.3,174.9 300.3,183.1 300.3,166.6 350.3,158.3 400.3,166.6 "/>
<polygon class="st2" points="100.3,133.8 50.3,125.5 0.3,133.8 0.3,117.3 50.3,109 100.3,117.3 "/>
<polygon class="st3" points="200.3,133.8 150.3,125.5 100.3,133.8 100.3,117.3 150.3,109 200.3,117.3 "/>
<polygon class="st0" points="300.3,133.8 250.3,125.5 200.3,133.8 200.3,117.3 250.3,109 300.3,117.3 "/>
<polygon class="st1" points="400.3,133.8 350.3,125.5 300.3,133.8 300.3,117.3 350.3,109 400.3,117.3 "/>
<polygon class="st3" points="100.3,83.9 50.3,75.6 0.3,83.9 0.3,67.3 50.3,59 100.3,67.3 "/>
<polygon class="st0" points="200.3,83.9 150.3,75.6 100.3,83.9 100.3,67.3 150.3,59 200.3,67.3 "/>
<polygon class="st1" points="300.3,83.9 250.3,75.6 200.3,83.9 200.3,67.3 250.3,59 300.3,67.3 "/>
<polygon class="st2" points="400.3,83.9 350.3,75.6 300.3,83.9 300.3,67.3 350.3,59 400.3,67.3 "/>
<polygon class="st1" points="200.3,233.1 150.3,224.8 100.3,233.1 100.3,216.5 150.3,208.2 200.3,216.5 "/>
<polygon class="st0" points="100.3,233.1 50.3,224.8 0.3,233.1 0.3,216.5 50.3,208.2 100.3,216.5 "/>
<polygon class="st2" points="300.3,233.1 250.3,224.8 200.3,233.1 200.3,216.5 250.3,208.2 300.3,216.5 "/>
<polygon class="st3" points="400.3,233.1 350.3,224.8 300.3,233.1 300.3,216.5 350.3,208.2 400.3,216.5 "/>
<polygon class="st1" points="100.3,383.3 50.3,375 0.3,383.3 0.3,366.7 50.3,358.4 100.3,366.7 "/>
<polygon class="st2" points="200.3,383.3 150.3,375 100.3,383.3 100.3,366.7 150.3,358.4 200.3,366.7 "/>
<polygon class="st3" points="300.3,383.3 250.3,375 200.3,383.3 200.3,366.7 250.3,358.4 300.3,366.7 "/>
<polygon class="st0" points="400.3,383.3 350.3,375 300.3,383.3 300.3,366.7 350.3,358.4 400.3,366.7 "/>
<polygon class="st2" points="100.3,334 50.3,325.7 0.3,334 0.3,317.4 50.3,309.1 100.3,317.4 "/>
<polygon class="st3" points="200.3,334 150.3,325.7 100.3,334 100.3,317.4 150.3,309.1 200.3,317.4 "/>
<polygon class="st0" points="300.3,334 250.3,325.7 200.3,334 200.3,317.4 250.3,309.1 300.3,317.4 "/>
<polygon class="st1" points="400.3,334 350.3,325.7 300.3,334 300.3,317.4 350.3,309.1 400.3,317.4 "/>
<polygon class="st3" points="100.3,284 50.3,275.7 0.3,284 0.3,267.5 50.3,259.2 100.3,267.5 "/>
<polygon class="st0" points="200.3,284 150.3,275.7 100.3,284 100.3,267.5 150.3,259.2 200.3,267.5 "/>
<polygon class="st1" points="300.3,284 250.3,275.7 200.3,284 200.3,267.5 250.3,259.2 300.3,267.5 "/>
<polygon class="st2" points="400.3,284 350.3,275.7 300.3,284 300.3,267.5 350.3,259.2 400.3,267.5 "/>
</svg>
